HIERARCHY
ROOT mixamorig:Hips
{
	OFFSET -0.000008 104.274872 1.554316
	CHANNELS 6 Xposition Yposition Zposition Xrotation Yrotation Zrotation
	JOINT mixamorig:Spine
	{
		OFFSET -0.000005 10.181595 0.131519
		CHANNELS 6 Xposition Yposition Zposition Xrotation Yrotation Zrotation
		JOINT mixamorig:Spine1
		{
			OFFSET -0.000000 9.893959 -1.470707
			CHANNELS 6 Xposition Yposition Zposition Xrotation Yrotation Zrotation
			JOINT mixamorig:Spine2
			{
				OFFSET -0.000000 9.220757 -1.370641
				CHANNELS 6 Xposition Yposition Zposition Xrotation Yrotation Zrotation
				JOINT mixamorig:Neck
				{
					OFFSET 0.000001 16.740417 -2.049036
					CHANNELS 6 Xposition Yposition Zposition Xrotation Yrotation Zrotation
					JOINT mixamorig:Head
					{
						OFFSET 0.000000 9.617874 1.685006
						CHANNELS 6 Xposition Yposition Zposition Xrotation Yrotation Zrotation
						JOINT mixamorig:HeadTop_End
						{
							OFFSET 0.000002 22.037354 7.501101
							CHANNELS 6 Xposition Yposition Zposition Xrotation Yrotation Zrotation
							End Site
							{
								OFFSET 0.000168 2310.654297 -282.823242
							}
						}
					}
				}
				JOINT mixamorig:RightShoulder
				{
					OFFSET -4.569970 11.014908 -2.160885
					CHANNELS 6 Xposition Yposition Zposition Xrotation Yrotation Zrotation
					JOINT mixamorig:RightArm
					{
						OFFSET -10.592851 -0.524811 -2.232101
						CHANNELS 6 Xposition Yposition Zposition Xrotation Yrotation Zrotation
						JOINT mixamorig:RightForeArm
						{
							OFFSET -27.841511 0.000031 -0.000004
							CHANNELS 6 Xposition Yposition Zposition Xrotation Yrotation Zrotation
							JOINT mixamorig:RightHand
							{
								OFFSET -28.328831 -0.000015 0.000015
								CHANNELS 6 Xposition Yposition Zposition Xrotation Yrotation Zrotation
								JOINT mixamorig:RightHandThumb1
								{
									OFFSET -2.464806 -1.573990 2.681852
									CHANNELS 6 Xposition Yposition Zposition Xrotation Yrotation Zrotation
									JOINT mixamorig:RightHandThumb2
									{
										OFFSET -3.215179 -1.872803 1.924282
										CHANNELS 6 Xposition Yposition Zposition Xrotation Yrotation Zrotation
										JOINT mixamorig:RightHandThumb3
										{
											OFFSET -2.654831 -1.527969 1.512609
											CHANNELS 6 Xposition Yposition Zposition Xrotation Yrotation Zrotation
											JOINT mixamorig:RightHandThumb4
											{
												OFFSET -2.018814 -1.152008 1.108052
												CHANNELS 6 Xposition Yposition Zposition Xrotation Yrotation Zrotation
												End Site
												{
													OFFSET -188.809540 -114.533607 132.431396
												}
											}
										}
									}
								}
								JOINT mixamorig:RightHandIndex1
								{
									OFFSET -9.108284 -0.517868 2.259835
									CHANNELS 6 Xposition Yposition Zposition Xrotation Yrotation Zrotation
									JOINT mixamorig:RightHandIndex2
									{
										OFFSET -3.699989 0.000000 0.001215
										CHANNELS 6 Xposition Yposition Zposition Xrotation Yrotation Zrotation
										JOINT mixamorig:RightHandIndex3
										{
											OFFSET -2.850006 0.000031 -0.000522
											CHANNELS 6 Xposition Yposition Zposition Xrotation Yrotation Zrotation
											JOINT mixamorig:RightHandIndex4
											{
												OFFSET -2.772186 -0.000015 -0.000020
												CHANNELS 6 Xposition Yposition Zposition Xrotation Yrotation Zrotation
												End Site
												{
													OFFSET -277.218445 0.000000 -0.050231
												}
											}
										}
									}
								}
								JOINT mixamorig:RightHandMiddle1
								{
									OFFSET -9.532516 -0.000031 -0.000023
									CHANNELS 6 Xposition Yposition Zposition Xrotation Yrotation Zrotation
									JOINT mixamorig:RightHandMiddle2
									{
										OFFSET -3.700005 -0.000015 0.003713
										CHANNELS 6 Xposition Yposition Zposition Xrotation Yrotation Zrotation
										JOINT mixamorig:RightHandMiddle3
										{
											OFFSET -2.949974 0.000015 -0.002054
											CHANNELS 6 Xposition Yposition Zposition Xrotation Yrotation Zrotation
											JOINT mixamorig:RightHandMiddle4
											{
												OFFSET -2.946640 0.000000 -0.000156
												CHANNELS 6 Xposition Yposition Zposition Xrotation Yrotation Zrotation
												End Site
												{
													OFFSET -294.664337 0.000000 -0.113670
												}
											}
										}
									}
								}
								JOINT mixamorig:RightHandRing1
								{
									OFFSET -9.103600 -0.043076 -1.865134
									CHANNELS 6 Xposition Yposition Zposition Xrotation Yrotation Zrotation
									JOINT mixamorig:RightHandRing2
									{
										OFFSET -3.379288 0.000000 -0.001055
										CHANNELS 6 Xposition Yposition Zposition Xrotation Yrotation Zrotation
										JOINT mixamorig:RightHandRing3
										{
											OFFSET -2.889687 -0.000015 0.000379
											CHANNELS 6 Xposition Yposition Zposition Xrotation Yrotation Zrotation
											JOINT mixamorig:RightHandRing4
											{
												OFFSET -2.638809 -0.000015 0.000941
												CHANNELS 6 Xposition Yposition Zposition Xrotation Yrotation Zrotation
												End Site
												{
													OFFSET -263.880371 0.000000 0.516020
												}
											}
										}
									}
								}
								JOINT mixamorig:RightHandPinky1
								{
									OFFSET -8.076683 -0.486710 -3.806280
									CHANNELS 6 Xposition Yposition Zposition Xrotation Yrotation Zrotation
									JOINT mixamorig:RightHandPinky2
									{
										OFFSET -3.600014 -0.000015 -0.003747
										CHANNELS 6 Xposition Yposition Zposition Xrotation Yrotation Zrotation
										JOINT mixamorig:RightHandPinky3
										{
											OFFSET -2.099983 0.000000 -0.005739
											CHANNELS 6 Xposition Yposition Zposition Xrotation Yrotation Zrotation
											JOINT mixamorig:RightHandPinky4
											{
												OFFSET -2.115768 -0.000031 -0.003680
												CHANNELS 6 Xposition Yposition Zposition Xrotation Yrotation Zrotation
												End Site
												{
													OFFSET -211.577087 0.000000 -0.350686
												}
											}
										}
									}
								}
							}
						}
					}
				}
				JOINT mixamorig:LeftShoulder
				{
					OFFSET 4.570447 11.014725 -2.160855
					CHANNELS 6 Xposition Yposition Zposition Xrotation Yrotation Zrotation
					JOINT mixamorig:LeftArm
					{
						OFFSET 10.592371 -0.524597 -2.232119
						CHANNELS 6 Xposition Yposition Zposition Xrotation Yrotation Zrotation
						JOINT mixamorig:LeftForeArm
						{
							OFFSET 27.841532 -0.000031 0.000026
							CHANNELS 6 Xposition Yposition Zposition Xrotation Yrotation Zrotation
							JOINT mixamorig:LeftHand
							{
								OFFSET 28.328846 -0.000061 0.000022
								CHANNELS 6 Xposition Yposition Zposition Xrotation Yrotation Zrotation
								JOINT mixamorig:LeftHandThumb1
								{
									OFFSET 2.466141 -1.576172 2.681732
									CHANNELS 6 Xposition Yposition Zposition Xrotation Yrotation Zrotation
									JOINT mixamorig:LeftHandThumb2
									{
										OFFSET 3.217812 -1.872070 1.916482
										CHANNELS 6 Xposition Yposition Zposition Xrotation Yrotation Zrotation
										JOINT mixamorig:LeftHandThumb3
										{
											OFFSET 2.656029 -1.528778 1.514513
											CHANNELS 6 Xposition Yposition Zposition Xrotation Yrotation Zrotation
											JOINT mixamorig:LeftHandThumb4
											{
												OFFSET 2.020889 -1.154053 1.115139
												CHANNELS 6 Xposition Yposition Zposition Xrotation Yrotation Zrotation
												End Site
												{
													OFFSET 190.885437 -115.081749 130.048782
												}
											}
										}
									}
								}
								JOINT mixamorig:LeftHandIndex1
								{
									OFFSET 9.109314 -0.518021 2.259871
									CHANNELS 6 Xposition Yposition Zposition Xrotation Yrotation Zrotation
									JOINT mixamorig:LeftHandIndex2
									{
										OFFSET 3.699989 0.000000 -0.000322
										CHANNELS 6 Xposition Yposition Zposition Xrotation Yrotation Zrotation
										JOINT mixamorig:LeftHandIndex3
										{
											OFFSET 2.850006 0.000000 0.000352
											CHANNELS 6 Xposition Yposition Zposition Xrotation Yrotation Zrotation
											JOINT mixamorig:LeftHandIndex4
											{
												OFFSET 2.774864 -0.000031 -0.000027
												CHANNELS 6 Xposition Yposition Zposition Xrotation Yrotation Zrotation
												End Site
												{
													OFFSET 277.486267 0.000000 -0.009857
												}
											}
										}
									}
								}
								JOINT mixamorig:LeftHandMiddle1
								{
									OFFSET 9.533394 0.000061 0.000044
									CHANNELS 6 Xposition Yposition Zposition Xrotation Yrotation Zrotation
									JOINT mixamorig:LeftHandMiddle2
									{
										OFFSET 3.699989 -0.000015 -0.000231
										CHANNELS 6 Xposition Yposition Zposition Xrotation Yrotation Zrotation
										JOINT mixamorig:LeftHandMiddle3
										{
											OFFSET 2.949997 -0.000015 -0.000059
											CHANNELS 6 Xposition Yposition Zposition Xrotation Yrotation Zrotation
											JOINT mixamorig:LeftHandMiddle4
											{
												OFFSET 2.952896 0.000031 0.000063
												CHANNELS 6 Xposition Yposition Zposition Xrotation Yrotation Zrotation
												End Site
												{
													OFFSET 295.289337 0.000000 0.022810
												}
											}
										}
									}
								}
								JOINT mixamorig:LeftHandRing1
								{
									OFFSET 9.104523 -0.042999 -1.865074
									CHANNELS 6 Xposition Yposition Zposition Xrotation Yrotation Zrotation
									JOINT mixamorig:LeftHandRing2
									{
										OFFSET 3.150009 -0.000031 0.000043
										CHANNELS 6 Xposition Yposition Zposition Xrotation Yrotation Zrotation
										JOINT mixamorig:LeftHandRing3
										{
											OFFSET 2.949982 -0.000015 0.000040
											CHANNELS 6 Xposition Yposition Zposition Xrotation Yrotation Zrotation
											JOINT mixamorig:LeftHandRing4
											{
												OFFSET 2.644348 0.000000 0.000057
												CHANNELS 6 Xposition Yposition Zposition Xrotation Yrotation Zrotation
												End Site
												{
													OFFSET 264.434631 0.000000 0.012105
												}
											}
										}
									}
								}
								JOINT mixamorig:LeftHandPinky1
								{
									OFFSET 8.077789 -0.486847 -3.806259
									CHANNELS 6 Xposition Yposition Zposition Xrotation Yrotation Zrotation
									JOINT mixamorig:LeftHandPinky2
									{
										OFFSET 3.599953 0.000031 0.014727
										CHANNELS 6 Xposition Yposition Zposition Xrotation Yrotation Zrotation
										JOINT mixamorig:LeftHandPinky3
										{
											OFFSET 2.100021 0.000015 0.007705
											CHANNELS 6 Xposition Yposition Zposition Xrotation Yrotation Zrotation
											JOINT mixamorig:LeftHandPinky4
											{
												OFFSET 2.125504 0.000031 0.007517
												CHANNELS 6 Xposition Yposition Zposition Xrotation Yrotation Zrotation
												End Site
												{
													OFFSET 212.550781 0.000000 0.625752
												}
											}
										}
									}
								}
							}
						}
					}
				}
			}
		}
	}
	JOINT mixamorig:RightUpLeg
	{
		OFFSET -8.207787 -6.751648 -1.599560
		CHANNELS 6 Xposition Yposition Zposition Xrotation Yrotation Zrotation
		JOINT mixamorig:RightLeg
		{
			OFFSET -0.000002 -44.370117 0.345942
			CHANNELS 6 Xposition Yposition Zposition Xrotation Yrotation Zrotation
			JOINT mixamorig:RightFoot
			{
				OFFSET 0.000003 -44.423679 -3.043532
				CHANNELS 6 Xposition Yposition Zposition Xrotation Yrotation Zrotation
				JOINT mixamorig:RightToeBase
				{
					OFFSET -0.000002 -8.728671 10.710558
					CHANNELS 6 Xposition Yposition Zposition Xrotation Yrotation Zrotation
					JOINT mixamorig:RightToe_End
					{
						OFFSET -0.000001 -0.000679 9.278119
						CHANNELS 6 Xposition Yposition Zposition Xrotation Yrotation Zrotation
						End Site
						{
							OFFSET 0.000000 -0.067690 927.812134
						}
					}
				}
			}
		}
	}
	JOINT mixamorig:LeftUpLeg
	{
		OFFSET 8.207793 -6.751686 -1.599556
		CHANNELS 6 Xposition Yposition Zposition Xrotation Yrotation Zrotation
		JOINT mixamorig:LeftLeg
		{
			OFFSET -0.000004 -44.370014 0.346954
			CHANNELS 6 Xposition Yposition Zposition Xrotation Yrotation Zrotation
			JOINT mixamorig:LeftFoot
			{
				OFFSET -0.000001 -44.423672 -3.044401
				CHANNELS 6 Xposition Yposition Zposition Xrotation Yrotation Zrotation
				JOINT mixamorig:LeftToeBase
				{
					OFFSET -0.000002 -8.728669 10.710558
					CHANNELS 6 Xposition Yposition Zposition Xrotation Yrotation Zrotation
					JOINT mixamorig:LeftToe_End
					{
						OFFSET -0.000003 -0.000679 9.278133
						CHANNELS 6 Xposition Yposition Zposition Xrotation Yrotation Zrotation
						End Site
						{
							OFFSET 0.000000 -0.068021 927.813477
						}
					}
				}
			}
		}
	}
}
MOTION
Frames: 3
Frame Time: 0.033333
0.000006 104.270477 1.554256 0.000010 0.000003 -0.000113 -0.000005 10.181587 0.131522 0.000001 -0.000003 0.000084 -0.000000 9.893967 -1.470711 0.000001 0.000000 -0.000000 -0.000000 9.220802 -1.370642 0.000000 -0.000000 -0.000000 0.000001 16.740433 -2.049030 0.000000 -0.000000 -0.000000 0.000000 9.617859 1.685014 0.000000 0.000000 0.000000 0.000002 22.037384 7.501101 0.000000 -0.000000 0.000000 -4.569968 11.014880 -2.160881 0.000008 0.000001 -0.000038 -10.592706 -0.524818 -2.231689 118.127234 86.411121 -114.914695 -27.841509 0.000014 0.000574 70.000956 117.698817 -98.397187 -28.328835 0.000006 0.000030 -0.000321 -0.000046 0.000007 -2.464484 -1.574144 2.682063 100.564236 -117.286929 143.835711 -3.215015 -1.872975 1.924374 310.515126 -31.309119 345.876436 -2.654683 -1.528263 1.512786 291.306120 -29.914528 335.794940 -2.018842 -1.152001 1.108064 -0.000005 -0.000000 0.000002 -9.108311 -0.518035 2.260064 300.660638 3.085717 -358.221757 -3.700065 -0.000144 0.001580 276.694351 15.223751 -346.453614 -2.850048 -0.000131 -0.000131 269.916618 14.767238 -345.212049 -2.772166 -0.000021 -0.000055 0.000002 -0.000001 -0.000002 -9.532523 -0.000210 0.000175 306.682870 1.873726 -359.003950 -3.700040 -0.000152 0.004072 276.864751 15.134608 -346.611419 -2.950053 -0.000153 -0.001661 270.611330 13.863601 -346.286465 -2.946617 0.000008 -0.000153 -0.000001 -0.000003 -0.000003 -9.103628 -0.043221 -1.864942 305.790520 4.946572 -357.483331 -3.379319 -0.000173 -0.000702 -83.239461 12.570212 11.187665 -2.889741 -0.000135 0.000784 -91.813875 11.221608 11.613339 -2.638796 -0.000000 0.000946 0.000001 -0.000001 -0.000002 -8.076691 -0.486866 -3.806077 -58.550321 3.691387 2.007185 -3.600016 -0.000258 -0.003414 -77.699228 2.261193 1.578885 -2.100008 -0.000216 -0.005386 90.807741 -183.513919 183.278578 -2.115783 -0.000039 -0.003670 0.000001 0.000001 -0.000003 4.570446 11.014691 -2.160851 -0.000018 0.000010 -0.000021 10.592512 -0.524592 -2.232344 26.762336 -86.182582 25.092708 27.841705 -0.000086 -0.000086 259.352938 -73.408995 276.107447 28.328840 -0.000027 0.000019 0.000021 -0.000088 -0.000000 2.466211 -1.576080 2.681894 69.652316 151.133481 -134.876511 3.217860 -1.871959 1.916546 109.766775 159.548561 -157.323080 2.656075 -1.528736 1.514606 -83.216744 24.761912 30.156644 2.020883 -1.154075 1.115131 0.000002 0.000003 0.000006 9.109306 -0.517972 2.260051 125.476189 -170.549223 175.125982 3.699978 0.000062 -0.000088 115.222081 -162.993640 169.158787 2.849994 0.000112 0.000588 -70.843986 -17.395013 -12.418600 2.774887 -0.000028 -0.000036 -0.000001 -0.000003 0.000000 9.533401 0.000088 0.000229 -54.280179 -7.311718 -3.748736 3.699977 0.000101 0.000022 -70.258543 -14.108252 -9.950471 2.949993 0.000092 0.000174 -72.637750 -12.944035 -9.534871 2.952875 -0.000033 0.000054 -0.000001 -0.000001 0.000002 9.104513 -0.042975 -1.864890 -56.798651 -8.741939 -4.733813 3.149974 0.000134 0.000279 -70.528192 -9.456785 -6.695366 2.949979 0.000116 0.000277 -74.220708 -7.739356 -5.860181 2.644314 0.000027 0.000052 0.000002 0.000000 -0.000002 8.077771 -0.486806 -3.806055 -58.164566 -8.104914 -4.729027 3.599932 0.000114 0.014956 -67.449669 -3.980859 -2.917524 2.099992 0.000125 0.007933 -72.605532 -3.915565 -3.152092 2.125504 -0.000027 0.007512 -0.000001 -0.000002 0.000003 -8.207786 -6.751667 -1.599560 -0.077001 -0.000003 0.000080 -0.000002 -44.370110 0.345938 0.153719 -0.000000 -0.000000 0.000000 -44.423679 -3.043532 -0.076700 0.000000 -0.000002 -0.000006 -8.728667 10.710559 -0.000009 -0.000000 -0.000000 -0.000001 -0.000679 9.278123 0.000000 -0.000000 -0.000000 8.207792 -6.751710 -1.599556 -0.074518 -0.000003 0.000081 -0.000002 -44.370014 0.346960 0.148822 0.000002 0.000000 -0.000001 -44.423664 -3.044403 -0.074314 0.000000 -0.000002 -0.000004 -8.728671 10.710558 0.000007 -0.000000 -0.000000 0.000000 -0.000680 9.278137 -0.000000 0.000000 -0.000001 
0.000006 104.270477 1.554256 0.000010 0.000003 -0.000113 -0.000005 10.181587 0.131522 0.000001 -0.000003 0.000084 -0.000000 9.893967 -1.470711 0.000001 0.000000 -0.000000 -0.000000 9.220802 -1.370642 0.000000 -0.000000 -0.000000 0.000001 16.740433 -2.049030 0.000000 -0.000000 -0.000000 0.000000 9.617859 1.685014 0.000000 0.000000 0.000000 0.000002 22.037384 7.501101 0.000000 -0.000000 0.000000 -4.569968 11.014880 -2.160881 0.000008 0.000001 -0.000038 -10.592702 -0.524808 -2.231685 148.116942 87.503787 -146.773730 -27.841499 0.000056 0.000575 71.244501 120.927434 -103.327348 -28.328833 0.000006 0.000017 -0.000317 -0.000043 0.000005 -2.464610 -1.574260 2.682127 82.167073 -143.299049 139.224841 -3.215080 -1.873021 1.924507 277.763194 -17.092572 332.928282 -2.654811 -1.528266 1.512889 271.895132 -7.326244 333.288315 -2.018831 -1.152015 1.108080 -0.000001 0.000001 0.000004 -9.108377 -0.517996 2.260063 311.416437 23.000592 -349.499523 -3.700076 -0.000118 0.001456 306.921654 22.496288 -348.659164 -2.850076 -0.000120 -0.000294 306.657899 18.821169 -350.482087 -2.772141 -0.000016 -0.000024 0.000000 -0.000001 0.000000 -9.532592 -0.000178 0.000174 316.171943 21.503321 -351.244500 -3.700100 -0.000144 0.003984 303.699662 21.404601 -348.472645 -2.950046 -0.000155 -0.001816 302.388211 16.548119 -350.858130 -2.946628 0.000003 -0.000149 0.000000 -0.000001 0.000001 -9.103683 -0.043201 -1.864943 314.349976 19.435081 -351.762529 -3.379313 -0.000179 -0.000818 -59.496712 11.955455 6.855773 -2.889750 -0.000174 0.000593 -59.249480 6.952332 3.976575 -2.638830 0.000012 0.000941 -0.000000 -0.000000 -0.000001 -8.076730 -0.486831 -3.806099 -48.908468 19.590553 8.950066 -3.599998 -0.000241 -0.003537 -57.237002 5.242317 2.709720 -2.099998 -0.000219 -0.005513 118.271747 -180.827127 180.375993 -2.115758 -0.000038 -0.003674 0.000000 -0.000001 -0.000001 4.570446 11.014691 -2.160851 -0.000018 0.000010 -0.000021 10.592516 -0.524583 -2.232349 40.218404 -84.651951 36.882718 27.841690 -0.000061 -0.000075 255.923691 -70.105130 276.075700 28.328835 -0.000026 0.000005 0.000018 -0.000088 -0.000001 2.466156 -1.576168 2.681866 96.603750 133.615494 -145.116713 3.217833 -1.871969 1.916562 120.392056 160.402731 -161.954577 2.656056 -1.528755 1.514631 -73.082088 20.413113 24.295241 2.020895 -1.154086 1.115136 -0.000001 0.000003 0.000001 9.109306 -0.517946 2.260073 118.612300 -170.509034 174.362449 3.699972 0.000073 -0.000093 116.475161 -163.968103 170.028516 2.849993 0.000090 0.000565 -64.875336 -16.867407 -10.765807 2.774872 -0.000026 -0.000029 0.000002 -0.000001 -0.000003 9.533408 0.000171 0.000277 -74.039592 -5.778739 -4.354510 3.699980 0.000123 0.000004 -79.155322 -12.341814 -10.213034 2.949992 0.000113 0.000161 -80.156204 -12.202310 -10.280248 2.952869 -0.000016 0.000052 -0.000002 -0.000002 -0.000001 9.104517 -0.042895 -1.864839 -73.902394 -8.412767 -6.334195 3.149975 0.000176 0.000303 -81.162926 -14.222811 -12.200050 2.949938 0.000168 0.000293 -82.000362 -13.319568 -11.592277 2.644317 0.000050 0.000060 -0.000002 -0.000001 0.000000 8.077749 -0.486737 -3.806023 -82.106087 -14.821189 -13.215935 3.599912 0.000196 0.014991 -91.486033 -11.692562 -12.332745 2.099971 0.000210 0.007973 -92.826751 -9.613407 -10.444099 2.125496 -0.000033 0.007521 -0.000001 0.000001 0.000000 -8.207786 -6.751667 -1.599560 -0.077001 -0.000003 0.000080 -0.000002 -44.370110 0.345938 0.153719 -0.000000 -0.000000 0.000000 -44.423679 -3.043532 -0.076700 0.000000 -0.000002 -0.000006 -8.728667 10.710559 -0.000009 -0.000000 -0.000000 -0.000001 -0.000679 9.278123 0.000000 -0.000000 -0.000000 8.207792 -6.751710 -1.599556 -0.074518 -0.000003 0.000081 -0.000002 -44.370014 0.346960 0.148822 0.000002 0.000000 -0.000001 -44.423664 -3.044403 -0.074314 0.000000 -0.000002 -0.000004 -8.728671 10.710558 0.000007 -0.000000 -0.000000 0.000000 -0.000680 9.278137 -0.000000 0.000000 -0.000001 
0.000006 104.270477 1.554256 0.000010 0.000003 -0.000113 -0.000005 10.181587 0.131522 0.000001 -0.000003 0.000084 -0.000000 9.893967 -1.470711 0.000001 0.000000 -0.000000 -0.000000 9.220802 -1.370642 0.000000 -0.000000 -0.000000 0.000001 16.740433 -2.049030 0.000000 -0.000000 -0.000000 0.000000 9.617859 1.685014 0.000000 0.000000 0.000000 0.000002 22.037384 7.501101 0.000000 -0.000000 0.000000 -4.569968 11.014880 -2.160881 0.000008 0.000001 -0.000038 -10.592706 -0.524828 -2.231686 117.610134 85.594729 -113.635469 -27.841511 0.000021 0.000559 74.160671 124.308582 -110.094139 -28.328835 0.000006 0.000020 -0.000324 -0.000046 0.000009 -2.464747 -1.574198 2.681976 122.667629 -167.842132 163.828166 -3.215115 -1.873001 1.924423 296.198940 -14.046242 340.930149 -2.654776 -1.528251 1.512808 285.054202 -14.694681 336.139209 -2.018823 -1.151992 1.108050 -0.000000 0.000002 0.000007 -9.108351 -0.518022 2.260170 287.477772 20.453562 -344.906959 -3.700077 -0.000150 0.001559 284.711135 20.888363 -343.823609 -2.850080 -0.000126 -0.000194 285.157939 15.729299 -347.933934 -2.772177 -0.000018 -0.000014 0.000000 -0.000003 -0.000004 -9.532566 -0.000206 0.000299 288.403426 19.550559 -345.785239 -3.700073 -0.000148 0.004051 284.156333 19.428243 -344.844312 -2.950042 -0.000188 -0.001738 284.097347 12.717559 -350.068888 -2.946596 0.000001 -0.000136 -0.000001 -0.000003 -0.000002 -9.103657 -0.043234 -1.864848 288.938148 17.139680 -347.732225 -3.379296 -0.000207 -0.000753 -73.984554 9.350935 7.060514 -2.889741 -0.000187 0.000652 -73.943607 2.935348 2.238985 -2.638811 -0.000016 0.000950 0.000001 -0.000000 0.000001 -8.076711 -0.486872 -3.806000 -71.663376 12.544994 9.009631 -3.600000 -0.000261 -0.003460 -74.094766 0.795095 0.366708 -2.099976 -0.000219 -0.005466 103.081140 -176.246516 176.847996 -2.115744 -0.000056 -0.003689 -0.000000 -0.000003 -0.000003 4.570446 11.014691 -2.160851 -0.000018 0.000010 -0.000021 10.592525 -0.524587 -2.232357 62.123487 -81.458059 54.824002 27.841698 -0.000090 -0.000067 255.348535 -69.587723 276.033380 28.328838 -0.000012 0.000018 0.000020 -0.000089 0.000000 2.466122 -1.576173 2.681869 102.898781 122.454924 -146.682520 3.217825 -1.871984 1.916561 126.422813 159.776648 -164.422802 2.656062 -1.528740 1.514632 -63.716977 15.757214 19.543550 2.020887 -1.154069 1.115144 0.000002 -0.000002 0.000001 9.109300 -0.517914 2.260104 109.304255 -171.268400 173.806649 3.699974 0.000067 -0.000122 114.673398 -165.759757 170.836678 2.849996 0.000091 0.000569 -62.895271 -12.651042 -7.755910 2.774871 -0.000025 -0.000027 -0.000001 0.000002 0.000000 9.533401 0.000200 0.000288 -85.056831 -5.327682 -4.881415 3.699978 0.000167 0.000008 -87.042852 -9.268190 -8.801906 2.949992 0.000139 0.000172 -87.221352 -8.223167 -7.836976 2.952866 -0.000017 0.000054 -0.000001 0.000001 -0.000000 9.104515 -0.042819 -1.864828 -94.543745 -7.337798 -7.943694 3.149956 0.000233 0.000317 -101.973433 -12.019774 -14.809255 2.949959 0.000220 0.000269 -101.112912 -9.418589 -11.437815 2.644322 0.000030 0.000066 -0.000001 -0.000002 0.000001 8.077753 -0.486676 -3.806015 -98.176893 -7.512157 -9.128316 3.599916 0.000268 0.014972 -109.003385 -5.604237 -8.375320 2.099983 0.000255 0.007943 -109.952939 -3.975460 -6.200742 2.125503 0.000012 0.007514 -0.000002 -0.000000 0.000000 -8.207786 -6.751667 -1.599560 -0.077001 -0.000003 0.000080 -0.000002 -44.370110 0.345938 0.153719 -0.000000 -0.000000 0.000000 -44.423679 -3.043532 -0.076700 0.000000 -0.000002 -0.000006 -8.728667 10.710559 -0.000009 -0.000000 -0.000000 -0.000001 -0.000679 9.278123 0.000000 -0.000000 -0.000000 8.207792 -6.751710 -1.599556 -0.074518 -0.000003 0.000081 -0.000002 -44.370014 0.346960 0.148822 0.000002 0.000000 -0.000001 -44.423664 -3.044403 -0.074314 0.000000 -0.000002 -0.000004 -8.728671 10.710558 0.000007 -0.000000 -0.000000 0.000000 -0.000680 9.278137 -0.000000 0.000000 -0.000001 
